<svg width="17" height="16" viewBox="0 0 17 16" fill="none" xmlns="http://www.w3.org/2000/svg">
<path fill-rule="evenodd" clip-rule="evenodd" d="M8.18391 0.249268C3.82241 0.249268 0.253906 3.81777 0.253906 8.17927C0.253906 11.6486 2.53378 14.6224 5.70578 15.7128C6.10228 15.8119 6.20141 15.5145 6.20141 15.3163V13.9285C4.02066 14.4241 3.52503 12.9373 3.52503 12.9373C3.12853 12.0451 2.63291 11.7478 2.63291 11.7478C1.93903 11.2521 2.73203 11.2521 2.73203 11.2521C3.52503 11.3513 3.92153 12.0451 3.92153 12.0451C4.61541 13.3338 5.80491 12.9373 6.20141 12.739C6.30053 12.2434 6.49878 11.8469 6.69703 11.6486C4.91278 11.4504 3.12853 10.7565 3.12853 7.68364C3.12853 6.79152 3.42591 6.09764 3.92153 5.60202C3.82241 5.40377 3.52503 4.61077 4.02066 3.52039C4.02066 3.52039 4.71453 3.32214 6.20141 4.31339C6.79616 4.11514 7.49003 4.01602 8.18391 4.01602C8.87778 4.01602 9.57166 4.11514 10.1664 4.31339C11.6533 3.32214 12.3472 3.52039 12.3472 3.52039C12.7437 4.61077 12.5454 5.40377 12.4463 5.60202C12.9419 6.19677 13.2393 6.89064 13.2393 7.68364C13.2393 10.7565 11.3559 11.3513 9.57166 11.5495C9.86903 11.946 10.1664 12.4416 10.1664 13.1355V15.3163C10.1664 15.5145 10.2655 15.8119 10.7612 15.7128C13.9332 14.6224 16.213 11.6486 16.213 8.17927C16.1139 3.81777 12.5454 0.249268 8.18391 0.249268V0.249268Z" fill="black"/>
</svg>
