<svg width="400" height="137" viewBox="0 0 400 137" fill="none" xmlns="http://www.w3.org/2000/svg">
<path d="M65.6097 44.1719H45.6526C42.059 44.0002 38.4728 44.6383 35.159 46.0388V4H4V132.756H35.0946V80.803C35.0945 79.7069 35.3115 78.6217 35.7328 77.6099C36.1542 76.5981 36.7717 75.6797 37.5497 74.9077C38.3277 74.1357 39.2508 73.5253 40.2658 73.1118C41.2809 72.6982 42.3677 72.4897 43.4637 72.4982H61.5539C62.6499 72.4897 63.7368 72.6982 64.7518 73.1118C65.7668 73.5253 66.6899 74.1357 67.4679 74.9077C68.2459 75.6797 68.8634 76.5981 69.2848 77.6099C69.7062 78.6217 69.9231 79.7069 69.9231 80.803V132.756H101.082V76.7471C101.082 53.1848 85.3738 44.1719 65.6741 44.1719H65.6097ZM364.839 44.1719V96.1249C364.839 98.3275 363.964 100.44 362.406 101.997C360.849 103.555 358.736 104.43 356.534 104.43H338.379C337.283 104.438 336.197 104.23 335.181 103.816C334.166 103.403 333.243 102.792 332.465 102.02C331.687 101.248 331.07 100.33 330.648 99.318C330.227 98.3062 330.01 97.221 330.01 96.1249V44.1719H298.916V98.7C298.916 121.039 313.014 132.756 334.388 132.756H364.839C384.152 132.756 395.998 118.915 395.998 98.8932V44.1719H364.839ZM189.216 96.1249C189.216 97.221 188.999 98.3062 188.577 99.318C188.156 100.33 187.538 101.248 186.76 102.02C185.982 102.792 185.059 103.403 184.044 103.816C183.029 104.23 181.942 104.438 180.846 104.43H162.756C161.66 104.438 160.573 104.23 159.558 103.816C158.543 103.403 157.62 102.792 156.842 102.02C156.064 101.248 155.447 100.33 155.025 99.318C154.604 98.3062 154.387 97.221 154.387 96.1249V44.1719H123.292V98.7C123.292 121.039 137.584 132.756 158.507 132.756H188.958C208.271 132.756 220.117 118.915 220.117 98.8932V44.1719H189.216V96.1249ZM244.066 132.756H275.225V4H244.066V132.756Z" fill="black"/>
</svg>
