<svg width="82" height="40" viewBox="0 0 82 40" fill="none" xmlns="http://www.w3.org/2000/svg">
<path d="M23.6631 10.4422H36.0431V11.4284H24.7982V18.8502H35.3724V19.8364H24.7982V27.9849H36.172V28.9711H23.6631V10.4422V10.4422ZM37.152 10.4422H38.4676L44.2964 18.5907L50.2542 10.4422L58.3578 0.0919991L45.0444 19.4471L51.9049 28.9711H50.5378L44.2964 20.3036L38.0293 28.9711H36.688L43.6 19.4471L37.1524 10.4422H37.152ZM52.3951 11.4284V10.4422H66.5027V11.4284H60.0036V28.9707H58.8684V11.4284H52.3956H52.3951ZM8.17556 10.4422H9.59422L29.1547 39.7769L21.0711 28.9711L9.36178 11.8436L9.31022 28.9711H8.17556V10.4422V10.4422ZM66.3889 27.6871C66.1564 27.6871 65.9827 27.5071 65.9827 27.2747C65.9827 27.0418 66.1564 26.8618 66.3884 26.8618C66.6231 26.8618 66.7942 27.0418 66.7942 27.2747C66.7942 27.5071 66.6231 27.6871 66.3884 27.6871H66.3889ZM67.5036 26.6013H68.1111C68.1196 26.9311 68.36 27.1524 68.7129 27.1524C69.1076 27.1524 69.3311 26.9147 69.3311 26.4684V23.6436H69.9493V26.4711C69.9493 27.2747 69.4858 27.7373 68.7182 27.7373C67.9982 27.7373 67.504 27.2884 67.504 26.6013H67.5036ZM70.7578 26.5658H71.3707C71.4231 26.9449 71.7929 27.1858 72.3258 27.1858C72.8222 27.1858 73.1867 26.928 73.1867 26.5738C73.1867 26.2693 72.9551 26.0862 72.4276 25.9618L71.9142 25.8373C71.1942 25.6684 70.8653 25.3191 70.8653 24.732C70.8653 24.02 71.4449 23.5462 72.3142 23.5462C73.1231 23.5462 73.7142 24.02 73.7498 24.6929H73.148C73.0902 24.3249 72.7702 24.0947 72.3062 24.0947C71.8173 24.0947 71.492 24.3302 71.492 24.6902C71.492 24.9756 71.7018 25.1391 72.2209 25.2609L72.6596 25.3689C73.4764 25.56 73.8133 25.8924 73.8133 26.4933C73.8133 27.2578 73.2222 27.7373 72.2787 27.7373C71.3956 27.7373 70.8018 27.28 70.7578 26.5653V26.5658Z" fill="black"/>
</svg>
